<svg width="16" height="12" viewBox="0 0 16 12" fill="none" xmlns="http://www.w3.org/2000/svg">
<path d="M8 3.93939C8.57865 3.93939 9.13361 4.16926 9.54278 4.57843C9.95195 4.9876 10.1818 5.54256 10.1818 6.12121C10.1818 6.69987 9.95195 7.25482 9.54278 7.66399C9.13361 8.07316 8.57865 8.30303 8 8.30303C7.42135 8.30303 6.86639 8.07316 6.45722 7.66399C6.04805 7.25482 5.81818 6.69987 5.81818 6.12121C5.81818 5.54256 6.04805 4.9876 6.45722 4.57843C6.86639 4.16926 7.42135 3.93939 8 3.93939ZM8 0.666668C11.6364 0.666668 14.7418 2.92849 16 6.12121C14.7418 9.31394 11.6364 11.5758 8 11.5758C4.36364 11.5758 1.25818 9.31394 0 6.12121C1.25818 2.92849 4.36364 0.666668 8 0.666668ZM1.58545 6.12121C2.17328 7.32144 3.08604 8.33267 4.21998 9.03994C5.35393 9.74722 6.66356 10.1222 8 10.1222C9.33644 10.1222 10.6461 9.74722 11.78 9.03994C12.914 8.33267 13.8267 7.32144 14.4145 6.12121C13.8267 4.92099 12.914 3.90976 11.78 3.20248C10.6461 2.49521 9.33644 2.12025 8 2.12025C6.66356 2.12025 5.35393 2.49521 4.21998 3.20248C3.08604 3.90976 2.17328 4.92099 1.58545 6.12121Z" fill="#666666"/>
</svg>
